<?xml version="1.0" encoding="UTF-8" standalone="no"?>
<!-- Created with Inkscape (http://www.inkscape.org/) -->

<svg
   xmlns:dc="http://purl.org/dc/elements/1.1/"
   xmlns:cc="http://creativecommons.org/ns#"
   xmlns:rdf="http://www.w3.org/1999/02/22-rdf-syntax-ns#"
   xmlns:svg="http://www.w3.org/2000/svg"
   xmlns="http://www.w3.org/2000/svg"
   xmlns:sodipodi="http://sodipodi.sourceforge.net/DTD/sodipodi-0.dtd"
   xmlns:inkscape="http://www.inkscape.org/namespaces/inkscape"
   sodipodi:docname="logo.svg"
   inkscape:version="0.92.3 (2405546, 2018-03-11)"
   id="svg8"
   version="1.1"
   viewBox="0 0 210 297"
   height="297mm"
   width="210mm">
  <sodipodi:namedview
     inkscape:window-maximized="1"
     inkscape:window-y="-8"
     inkscape:window-x="-8"
     inkscape:window-height="705"
     inkscape:window-width="1366"
     inkscape:pagecheckerboard="true"
     showgrid="false"
     inkscape:current-layer="svg8"
     inkscape:document-units="mm"
     inkscape:cy="490.53534"
     inkscape:cx="-141.11648"
     inkscape:zoom="0.35"
     inkscape:pageshadow="2"
     inkscape:pageopacity="0.0"
     borderopacity="1.0"
     bordercolor="#666666"
     pagecolor="#ffffff"
     id="base" />
  <defs
     id="defs2" />
  <metadata
     id="metadata5">
    <rdf:RDF>
      <cc:Work
         rdf:about="">
        <dc:format>image/svg+xml</dc:format>
        <dc:type
           rdf:resource="http://purl.org/dc/dcmitype/StillImage" />
        <dc:title></dc:title>
      </cc:Work>
    </rdf:RDF>
  </metadata>
  <g
     id="layer1"
     inkscape:groupmode="layer"
     inkscape:label="Camada 1" />
  <g
     id="g1288"
     transform="translate(-94.494048,-30.238095)">
    <path
       id="path1268"
       d="M 21.830835,114.97204 A 27.34391,36.3125 0 0 1 -5.5130749,151.28454 27.34391,36.3125 0 0 1 -32.856985,114.97204 27.34391,36.3125 0 0 1 -5.5130749,78.659538 27.34391,36.3125 0 0 1 21.830835,114.97204 Z"
       style="opacity:1;fill:#000000;fill-opacity:1;stroke:none;stroke-width:0.26473665;stroke-opacity:1"
       inkscape:connector-curvature="0" />
    <path
       id="ellipse1270"
       d="m 207.31051,115.50121 a 27.34391,36.3125 0 0 1 -27.34391,36.3125 27.34391,36.3125 0 0 1 -27.34391,-36.3125 27.34391,36.3125 0 0 1 27.34391,-36.312497 27.34391,36.3125 0 0 1 27.34391,36.312497 z"
       style="opacity:1;fill:#000000;fill-opacity:1;stroke:none;stroke-width:0.26473665;stroke-opacity:1"
       inkscape:connector-curvature="0" />
    <path
       id="ellipse1272"
       d="M 83.277744,56.172741 A 34.524364,46.432922 0 0 1 48.75338,102.60566 34.524364,46.432922 0 0 1 14.229015,56.172741 34.524364,46.432922 0 0 1 48.75338,9.7398186 34.524364,46.432922 0 0 1 83.277744,56.172741 Z"
       style="opacity:1;fill:#000000;fill-opacity:1;stroke:none;stroke-width:0.33638105;stroke-opacity:1"
       inkscape:connector-curvature="0" />
    <path
       id="ellipse1274"
       d="M 157.58403,56.707279 A 34.524364,46.432922 0 0 1 123.05967,103.1402 34.524364,46.432922 0 0 1 88.535305,56.707279 34.524364,46.432922 0 0 1 123.05967,10.274357 34.524364,46.432922 0 0 1 157.58403,56.707279 Z"
       style="opacity:1;fill:#000000;fill-opacity:1;stroke:none;stroke-width:0.33638105;stroke-opacity:1"
       inkscape:connector-curvature="0" />
    <path
       sodipodi:nodetypes="ccccccc"
       inkscape:connector-curvature="0"
       id="path1276"
       d="m 159.41793,162.62827 c 10.83736,33.3883 -8.4636,78.40494 -55.30113,38.97506 -5.904788,-5.20812 -13.176065,-6.20087 -18.852449,-6.18725 -5.241195,0.0126 -10.565658,0.54958 -18.368795,5.07709 -35.77761,33.32298 -71.8681795,9.481 -54.22644,-38.99883 16.779911,-33.44332 34.327077,-50.83906 72.071441,-52.64672 44.677753,2.09125 63.914623,29.14025 74.677373,53.78065 z"
       style="opacity:1;fill:#000000;fill-opacity:1;stroke:none;stroke-width:0.26458332;stroke-opacity:1" />
  </g>
</svg>
